<?xml version="1.0" encoding="UTF-8" standalone="no"?>
<svg
   xmlns:svg="http://www.w3.org/2000/svg"
   xmlns="http://www.w3.org/2000/svg"
   xmlns:sodipodi="http://sodipodi.sourceforge.net/DTD/sodipodi-0.dtd"
   xmlns:inkscape="http://www.inkscape.org/namespaces/inkscape"
   sodipodi:docname="logo.svg"
   inkscape:version="1.0 (4035a4fb49, 2020-05-01)"
   inkscape:export-ydpi="363.87094"
   inkscape:export-xdpi="363.87094"
   inkscape:export-filename="C:\Users\wgrah\source\swordle\app\assets\adaptive-icon-inner.png"
   version="1.1"
   viewBox="0 0 110 124">
  <defs
     id="defs11" />
  <sodipodi:namedview
     inkscape:window-maximized="1"
     inkscape:window-y="1072"
     inkscape:window-x="-8"
     inkscape:window-height="1369"
     inkscape:window-width="2560"
     inkscape:cy="62"
     inkscape:cx="165"
     inkscape:zoom="3.1787879" />
  <g
     id="b"
     fill="#AA02AD"
     featurekey="symbolContainer"
     inkscape:export-xdpi="387.09677"
     inkscape:export-ydpi="387.09677">
    <rect
       id="c"
       width="110"
       height="124"
       rx="8" />
    <g
       transform="matrix(2.1327 0 0 2.1327 20.006 -19.504)"
       id="d"
       fill="#f7f7f7"
       featurekey="monogramFeature-0">
      <path
         id="e"
         d="m.72 16.56c0-.06 30.66-.48 30.84-.36.78.72 1.14 7.44 1.26 15.42-3.18-2.7-8.1-5.52-14.88-5.7-1.14 0-2.04.84-2.1 1.98 0 1.14.84 2.04 1.98 2.1 8.34.18 13.14 4.98 15 7.38 0 10.5-.48 21.12-1.08 21.72-1.26 1.08-30.42 1.38-31.2 0-.6-1.14-.6-11.52-.48-21.72 6.06.48 15.72 2.46 17.4 9.9.3 1.08 1.32 1.8 2.4 1.56 1.14-.3 1.8-1.32 1.56-2.46-2.22-9.96-14.28-12.48-21.24-13.02.18-8.94.42-16.74.54-16.8z" />
    </g>
  </g>
</svg>
