<?xml version="1.0" encoding="UTF-8" standalone="no"?>
<svg
   xmlns:dc="http://purl.org/dc/elements/1.1/"
   xmlns:cc="http://creativecommons.org/ns#"
   xmlns:rdf="http://www.w3.org/1999/02/22-rdf-syntax-ns#"
   xmlns:svg="http://www.w3.org/2000/svg"
   xmlns="http://www.w3.org/2000/svg"
   xmlns:sodipodi="http://sodipodi.sourceforge.net/DTD/sodipodi-0.dtd"
   xmlns:inkscape="http://www.inkscape.org/namespaces/inkscape"
   inkscape:version="1.0 (4035a4fb49, 2020-05-01)"
   sodipodi:docname="logo-source.svg"
   id="svg12"
   version="1.1"
   class="css-1j8o68f"
   viewBox="0 0 330 124"
   height="124"
   width="330">
  <metadata
     id="metadata16">
    <rdf:RDF>
      <cc:Work
         rdf:about="">
        <dc:format>image/svg+xml</dc:format>
        <dc:type
           rdf:resource="http://purl.org/dc/dcmitype/StillImage" />
        <dc:title></dc:title>
      </cc:Work>
    </rdf:RDF>
  </metadata>
  <sodipodi:namedview
     inkscape:current-layer="svg12"
     inkscape:window-maximized="1"
     inkscape:window-y="1072"
     inkscape:window-x="-8"
     inkscape:cy="62"
     inkscape:cx="165"
     inkscape:zoom="3.1787879"
     showgrid="false"
     id="namedview14"
     inkscape:window-height="1369"
     inkscape:window-width="2560"
     inkscape:pageshadow="2"
     inkscape:pageopacity="0"
     guidetolerance="10"
     gridtolerance="10"
     objecttolerance="10"
     borderopacity="1"
     bordercolor="#666666"
     pagecolor="#ffffff" />
  <defs
     id="SvgjsDefs1198" />
  <g
     fill="#AA02AD"
     transform="matrix(1,0,0,1,0,0)"
     featurekey="symbolContainer"
     id="SvgjsG1199">
    <rect
       id="rect3"
       rx="8"
       height="124"
       width="110" />
  </g>
  <g
     fill="#f7f7f7"
     transform="matrix(2.1326701641082764,0,0,2.1326701641082764,20.005771113777744,-19.503515403680147)"
     featurekey="monogramFeature-0"
     id="SvgjsG1200">
    <path
       id="path6"
       d="M0.72 16.560000000000002 l0 0 c0 -0.06 30.66 -0.48 30.84 -0.36 c0.78 0.72 1.14 7.44 1.26 15.42 c-3.18 -2.7 -8.1 -5.52 -14.88 -5.7 c-1.14 0 -2.04 0.84 -2.1 1.98 c0 1.14 0.84 2.04 1.98 2.1 c8.34 0.18 13.14 4.98 15 7.38 c0 10.5 -0.48 21.12 -1.08 21.72 c-1.26 1.08 -30.42 1.38 -31.2 0 c-0.6 -1.14 -0.6 -11.52 -0.48 -21.72 c6.06 0.48 15.72 2.46 17.4 9.9 c0.3 1.08 1.32 1.8 2.4 1.56 c1.14 -0.3 1.8 -1.32 1.56 -2.46 c-2.22 -9.96 -14.28 -12.48 -21.24 -13.02 c0.18 -8.94 0.42 -16.74 0.54 -16.8 z" />
  </g>
  <g
     fill="#111111"
     transform="matrix(1.2522393465042114,0,0,1.2522393465042114,128.24686187811628,29.57420749327721)"
     featurekey="nameFeature-0"
     id="SvgjsG1201">
    <path
       id="path9"
       d="M11.56 11.52 c4.92 0 8.04 3.08 9.52 5.8 l-4.32 2.56 c-1.52 -2.12 -3 -3.2 -5.2 -3.2 c-1.96 0 -3.4 1.16 -3.4 2.76 s0.92 2.44 3.12 3.24 l1.92 0.68 c6.2 2.2 8.64 4.96 8.64 8.8 c0 5.64 -5.36 8.44 -10.12 8.44 c-5.04 0 -8.96 -3 -10.32 -6.92 l4.48 -2.36 c1 2.04 2.68 4 5.84 4 c2.28 0 4.04 -1 4.04 -3.08 c0 -2 -1.2 -2.88 -4.24 -4.04 l-1.72 -0.6 c-4.12 -1.48 -7.44 -3.52 -7.44 -8.4 c0 -4.48 4.2 -7.68 9.2 -7.68 z M54.52 19.12 l5.68 0 l-7.52 20.88 l-5.48 0 l-4.96 -13.92 l-5 13.92 l-5.48 0 l-7.52 -20.88 l5.72 0 l4.64 14 l5.12 -14 l5 0 l5.16 14 z M73.52000000000001 18.84 c4.72 0 10.88 3.56 10.88 10.84 s-6.16 10.72 -10.88 10.72 s-10.92 -3.44 -10.92 -10.72 s6.2 -10.84 10.92 -10.84 z M73.52000000000001 23.92 c-2.6 0 -5.36 1.96 -5.36 5.76 c0 3.68 2.76 5.64 5.36 5.64 c2.56 0 5.36 -1.96 5.36 -5.64 c0 -3.8 -2.8 -5.76 -5.36 -5.76 z M100.80000000000001 18.88 c0.52 0 1 0 1.52 0.12 l0 5.48 c-0.48 -0.12 -0.96 -0.12 -1.36 -0.12 c-3.84 0 -7 2.76 -7.36 6.76 l0 8.88 l-5.72 0 l0 -20.8 l5.72 0 l0 5.2 c0.92 -3.16 3.44 -5.52 7.2 -5.52 z M120.96000000000001 11.719999999999999 l5.72 0 l0 10.6 l0 17.68 l-5.72 0 l0 -2.56 c-0.12 0.84 -2.16 2.96 -5.76 2.96 c-4.76 0 -10.28 -3.44 -10.28 -10.84 c0 -7.16 5.52 -10.72 10.28 -10.72 c3.6 0 5.64 2.24 5.76 2.68 l0 -9.8 z M116.00000000000001 35.32 c2.8 0 5.24 -1.92 5.24 -5.76 c0 -3.72 -2.44 -5.64 -5.24 -5.64 c-2.88 0 -5.52 1.96 -5.52 5.64 c0 3.8 2.64 5.76 5.52 5.76 z M136.56000000000003 11.719999999999999 l0 28.28 l-5.72 0 l0 -28.28 l5.72 0 z M150.96 18.84 c4.72 0 11.24 3.56 10 12.76 l-15.12 0 c0.72 2.6 2.88 3.96 5.68 3.96 c2.6 0 3.6 -0.6 5.08 -1.4 l3.16 3.08 c-1.8 1.88 -4.36 3.16 -8.44 3.16 c-5.2 0 -11.28 -3.56 -11.28 -10.72 c0 -7.28 6.2 -10.84 10.92 -10.84 z M150.96 23.72 c-2.08 0 -4.28 1.28 -5.04 3.84 l10 0 c-0.64 -2.56 -2.92 -3.84 -4.96 -3.84 z" />
  </g>
</svg>
